<?xml version="1.0" encoding="UTF-8"?>
<svg id="_レイヤー_2" data-name="レイヤー_2" xmlns="http://www.w3.org/2000/svg" viewBox="0 0 191.73 129.04">
  <defs>
    <style>
      .cls-1 {
        fill: #9a8a55;
      }

      .cls-2 {
        fill: #1c3d5e;
      }
    </style>
  </defs>
  <g id="_完成" data-name="完成">
    <path class="cls-2" d="M48.59,129.04H11.33c-3.49,0-6.42-2.62-6.81-6.09L.22,84.57c-.88-7.81.94-15.79,5.1-22.45.73-1.17,2.27-1.53,3.45-.79,1.17.73,1.53,2.27.79,3.45-3.57,5.71-5.12,12.55-4.37,19.24l4.3,38.38c.11.94.9,1.65,1.84,1.65h37.27c.94,0,1.73-.71,1.84-1.65l4.77-42.54c.37-3.33-1.25-6.59-4.12-8.31l-26.48-15.8c-4.08-2.43-6.62-6.9-6.62-11.65V6.33c0-.65.34-6.33,11.97-6.33s11.97,5.68,11.97,6.33v32.71c0,1.38-1.12,2.5-2.5,2.5s-2.5-1.12-2.5-2.5V6.61c-.33-.49-2.09-1.61-6.97-1.61s-6.65,1.12-6.97,1.61v37.48c0,3,1.6,5.82,4.18,7.36l26.48,15.8c4.56,2.72,7.12,7.89,6.53,13.16l-4.77,42.54c-.39,3.47-3.32,6.09-6.81,6.09Z"/>
    <path class="cls-1" d="M13.43,83.04h33.07c2.6,0,4.61,2.26,4.32,4.84l-2.78,24.79c-.25,2.2-2.11,3.87-4.32,3.87h-27.51c-2.22,0-4.08-1.66-4.32-3.87l-2.78-24.79c-.29-2.58,1.73-4.84,4.32-4.84Z"/>
    <g>
      <path class="cls-2" d="M81.24,113.04c0,1.39-.91,1.97-1.97,1.97s-2.02-.58-2.02-1.97v-33.22c0-1.34.91-2.02,2.02-2.02s1.97.67,1.97,2.02v12.34c0,1.44-.1,3.36-.14,5.18,1.34-1.39,2.4-2.54,3.36-3.55l14.26-15.22c.48-.53,1.06-.77,1.58-.77,1.01,0,2.06.91,2.06,1.97,0,.48-.19.96-.67,1.44l-11.67,11.9,13.49,18.67c.29.38.43.86.43,1.34,0,1.1-.91,1.87-2.02,1.87-.62,0-1.2-.24-1.63-.86l-12.82-18.48-6.24,6.1v11.28Z"/>
      <g>
        <path class="cls-2" d="M108.35,106.04c.22,4.57,2.56,6.77,5.65,6.77,2.41,0,3.82-1.22,4.79-3.53.25-.61.68-.9,1.15-.9.68,0,1.51.47,1.51,1.22,0,.22-.04.43-.14.68-1.4,2.84-3.53,4.72-7.31,4.72-5.36,0-8.32-4.14-8.32-9.57s3.02-9.5,8.35-9.5,7.67,4.9,7.67,7.81c0,1.58-.5,2.3-2.12,2.3h-11.23ZM118.54,103.88c.36,0,.54-.25.54-.61,0-.18-.04-.4-.07-.54-.58-2.59-2.12-4.61-4.97-4.61s-5.11,2.05-5.62,5.76h10.11Z"/>
        <path class="cls-2" d="M126.64,106.04c.22,4.57,2.56,6.77,5.65,6.77,2.41,0,3.82-1.22,4.79-3.53.25-.61.68-.9,1.15-.9.68,0,1.51.47,1.51,1.22,0,.22-.04.43-.14.68-1.4,2.84-3.53,4.72-7.31,4.72-5.36,0-8.32-4.14-8.32-9.57s3.02-9.5,8.35-9.5,7.67,4.9,7.67,7.81c0,1.58-.5,2.3-2.12,2.3h-11.23ZM136.82,103.88c.36,0,.54-.25.54-.61,0-.18-.04-.4-.07-.54-.58-2.59-2.12-4.61-4.97-4.61s-5.11,2.05-5.62,5.76h10.11Z"/>
        <path class="cls-2" d="M145.9,97.91c0,.5-.07,1.08-.07,1.66.97-2.09,3.1-3.64,5.9-3.64,5.08,0,7.96,4.14,7.96,9.5s-2.92,9.57-7.92,9.57c-2.7,0-4.82-1.22-5.94-3.46,0,.61.07,1.08.07,1.62v9.57c0,.9-.68,1.3-1.37,1.3s-1.3-.4-1.3-1.3v-25.3c0-.9.65-1.3,1.33-1.3s1.33.4,1.33,1.3v.47ZM145.9,108.09c1.22,2.99,2.95,4.64,5.54,4.64,3.42,0,5.54-2.66,5.54-7.31s-2.16-7.24-5.54-7.24c-2.74,0-4.46,1.87-5.54,4.86v5.04Z"/>
        <path class="cls-2" d="M164.91,106.04c.22,4.57,2.56,6.77,5.65,6.77,2.41,0,3.82-1.22,4.79-3.53.25-.61.68-.9,1.15-.9.68,0,1.51.47,1.51,1.22,0,.22-.04.43-.14.68-1.4,2.84-3.53,4.72-7.31,4.72-5.36,0-8.32-4.14-8.32-9.57s3.02-9.5,8.35-9.5,7.67,4.9,7.67,7.81c0,1.58-.5,2.3-2.12,2.3h-11.23ZM175.09,103.88c.36,0,.54-.25.54-.61,0-.18-.04-.4-.07-.54-.58-2.59-2.12-4.61-4.97-4.61s-5.11,2.05-5.62,5.76h10.11Z"/>
        <path class="cls-2" d="M184.17,113.46c0,.94-.65,1.33-1.33,1.33s-1.33-.4-1.33-1.33v-16.02c0-.9.65-1.3,1.33-1.3s1.33.4,1.33,1.3v.61c0,.58-.04,1.08-.07,1.73.61-1.26,1.55-2.23,2.59-2.92,1.12-.65,2.2-.94,3.74-.94.97,0,1.3.65,1.3,1.33,0,.79-.43,1.4-1.37,1.4h-.58c-1.22,0-2.27.22-3.2.9-1.4,1.01-2.02,2.41-2.41,4.36v9.54Z"/>
      </g>
    </g>
    <g>
      <path class="cls-2" d="M87.45,54.75c-7.87-1.78-11.14-4.22-11.14-10.42,0-5.62,4.61-9.31,11.86-9.31,6.43,0,10.7,2.83,11.95,8.26.05.24.1.53.1.72,0,1.2-.86,1.87-2.02,1.87-.96,0-1.73-.38-1.97-1.54-.91-4.18-3.46-5.95-8.02-5.95-4.8,0-7.97,1.92-7.97,5.95s2.5,5.57,8.69,6.86l1.68.38c7.87,1.82,10.8,4.66,10.8,11.04,0,6.05-5.09,10.18-12.82,10.18-8.4,0-12.24-4.42-13.15-8.69-.1-.48-.19-1.1-.19-1.34,0-1.25.91-1.82,2.06-1.82,1.01,0,1.82.34,2.02,1.63.53,4.42,3.89,6.86,9.26,6.86s8.88-2.54,8.88-6.82-2.21-6.1-8.35-7.49l-1.68-.38Z"/>
      <g>
        <path class="cls-2" d="M116.98,59.34c0-2.23-1.19-3.42-4.07-3.42s-4.03,1.22-4.71,3.13c-.18.54-.68.86-1.22.86-.76,0-1.44-.43-1.44-1.26,0-.14.04-.36.07-.5.72-2.27,2.84-4.43,7.34-4.43,4.14,0,6.66,1.37,6.66,5.65v7.85c0,1.44.18,2.45.54,3.13.14.36.22.68.22.94,0,.72-.86,1.26-1.58,1.26-.4,0-.79-.22-1.12-.76-.25-.5-.36-1.01-.5-1.62-1.58,1.51-3.46,2.63-6.73,2.63-3.49,0-5.87-1.91-5.87-5.36,0-3.24,1.87-5,5.76-6.05,2.84-.76,4.89-.9,6.66-1.08v-.97ZM116.98,62.43c-1.76.14-3.85.36-6.34,1.15-2.05.65-3.42,1.8-3.42,3.85,0,1.94,1.48,3.17,3.71,3.17s4.28-1.01,6.05-3.02v-5.15Z"/>
        <path class="cls-2" d="M126.52,71.25c0,.94-.68,1.33-1.37,1.33s-1.3-.4-1.3-1.33v-25.27c0-.9.61-1.3,1.3-1.3s1.37.4,1.37,1.3v14.76c0,.79-.04,1.76-.04,2.59l8.96-8.96c.32-.32.65-.43.97-.43.65,0,1.44.68,1.44,1.37,0,.29-.14.61-.47.94l-5.83,5.44,6.52,8.71c.22.29.32.61.32.9,0,.76-.65,1.3-1.37,1.3-.4,0-.83-.18-1.15-.61l-6.19-8.6-3.17,2.95v4.93Z"/>
        <path class="cls-2" d="M142.65,63.84c.22,4.57,2.56,6.77,5.65,6.77,2.41,0,3.82-1.22,4.79-3.53.25-.61.68-.9,1.15-.9.68,0,1.51.47,1.51,1.22,0,.22-.04.43-.14.68-1.4,2.84-3.53,4.72-7.31,4.72-5.36,0-8.32-4.14-8.32-9.57s3.02-9.5,8.35-9.5,7.67,4.9,7.67,7.81c0,1.58-.5,2.3-2.12,2.3h-11.23ZM152.84,61.68c.36,0,.54-.25.54-.61,0-.18-.04-.4-.07-.54-.58-2.59-2.12-4.61-4.97-4.61s-5.11,2.05-5.62,5.76h10.11Z"/>
      </g>
    </g>
  </g>
</svg>